/vscmnt/brussel_pixiu_data/_data_brussel/112/vsc11236/PredSimResults/SUBJ07mtu3D/weighted-LRposFixed/trackIG/worker_02.mot
version=1
nRows=4
nColumns=50
inDegrees=yes
endheader
                time	         pelvis_tilt	         pelvis_list	     pelvis_rotation	           pelvis_tx	           pelvis_ty	           pelvis_tz	       hip_flexion_r	     hip_adduction_r	      hip_rotation_r	        knee_angle_r	       ankle_angle_r	         mtp_angle_r	       hip_flexion_l	     hip_adduction_l	      hip_rotation_l	        knee_angle_l	       ankle_angle_l	         mtp_angle_l	    lumbar_extension	      lumbar_bending	     lumbar_rotation	 ercspn_r/activation	 intobl_r/activation	 extobl_r/activation	    abd_r/activation	    add_r/activation	hamstrings_r/activation	bifemsh_r/activation	glut_max_r/activation	iliopsoas_r/activation	rect_fem_r/activation	  vasti_r/activation	gastroc_r/activation	 soleus_r/activation	tib_ant_r/activation	 ercspn_l/activation	 intobl_l/activation	 extobl_l/activation	    abd_l/activation	    add_l/activation	hamstrings_l/activation	bifemsh_l/activation	glut_max_l/activation	iliopsoas_l/activation	rect_fem_l/activation	  vasti_l/activation	gastroc_l/activation	 soleus_l/activation	tib_ant_l/activation	
          1.09028146	         -6.49186800	         -3.82472929	          8.98653145	          1.40646309	          0.84383697	         -0.01185647	         31.59637144	         -0.22964883	         -6.81569200	         -3.90312770	          7.66089625	          0.25218304	        -13.30910946	         -4.55609295	          5.06893706	         -7.46169797	          7.96482255	         28.66802166	         -6.87965781	          2.24074378	         -3.89991300	          0.10303613	          0.18315484	          0.02710654	          0.01604137	          0.13379370	          0.08144099	          0.21457258	          0.01000000	          0.08682503	          0.01000000	          0.01000000	          0.01718673	          0.00999999	          0.27379994	          0.03706629	          0.00999999	          0.00999999	          0.03476527	          0.05219502	          0.03040044	          0.14647076	          0.02725530	          0.40625453	          0.01000001	          0.01066622	          0.26754876	          0.26392480	          0.02105063	
          1.10118428	         -6.55368806	         -3.69599311	          8.88869226	          1.42294570	          0.84197225	         -0.01162159	         31.69625346	         -0.04328891	         -5.96468484	         -5.77363267	          7.32282921	          0.24742074	        -13.32079560	         -4.41949220	          4.55927260	         -9.45141879	          7.21090140	         30.43257701	         -6.69193357	          2.68799810	         -3.97276377	          0.08719214	          0.15532647	          0.02293834	          0.01357467	          0.19620618	          0.07059973	          0.18157749	          0.08800464	          0.07347384	          0.01000001	          0.00999999	          0.02304418	          0.01868091	          0.28031402	          0.09931736	          0.00999999	          0.01000001	          0.02941937	          0.10232367	          0.02572574	          0.12394777	          0.02306422	          0.41834169	          0.01000001	          0.01000002	          0.22640745	          0.24462889	          0.01781365	
          1.11208709	         -6.59880108	         -3.56847480	          8.73335998	          1.43969018	          0.84026395	         -0.01135703	         31.59836749	          0.12372476	         -5.12033345	         -7.51127261	          6.94536923	          0.23756458	        -13.13818589	         -4.26499698	          3.99092362	        -11.86000618	          6.35240634	         32.09313828	         -6.49071009	          3.15627743	         -4.01644107	          0.07892986	          0.13144172	          0.01941108	          0.08435209	          0.19578661	          0.06968439	          0.15365610	          0.10835649	          0.06217568	          0.00999999	          0.00999999	          0.01950065	          0.01580832	          0.33160938	          0.13073093	          0.00999999	          0.01000000	          0.02489552	          0.09182193	          0.02176986	          0.10488817	          0.01951761	          0.39984853	          0.01000000	          0.00999999	          0.19159249	          0.21082194	          0.01507442	
          1.12298991	         -6.62959492	         -3.43827700	          8.52177271	          1.45647628	          0.83889299	         -0.01099822	         31.33989089	          0.30954473	         -4.36538325	         -8.96055482	          6.46169537	          0.22102734	        -12.68981801	         -4.09741353	          3.37836681	        -14.76599249	          5.35107623	         33.50954377	         -6.29888765	          3.62626540	         -4.03251097	          0.09054422	          0.11122977	          0.01642621	          0.13172879	          0.20568217	          0.06001847	          0.13002821	          0.15196279	          0.05261484	          0.01000000	          0.00999999	          0.01650201	          0.01337746	          0.35523795	          0.16284778	          0.00999999	          0.01000000	          0.02106730	          0.10078513	          0.01842229	          0.08875939	          0.01651636	          0.37495057	          0.01000000	          0.00999999	          0.16213108	          0.17840359	          0.01275641	
